<?xml version="1.0"?>
<svg xmlns="http://www.w3.org/2000/svg" xmlns:xlink="http://www.w3.org/1999/xlink" xmlns:svgjs="http://svgjs.com/svgjs" version="1.1" width="512" height="512" x="0" y="0" viewBox="0 0 512 512" style="enable-background:new 0 0 512 512" xml:space="preserve" class=""><g><g xmlns="http://www.w3.org/2000/svg"><path d="m23.4 193.796c-8.055 0-13.836-7.829-11.393-15.504 17.217-54.105 51.932-100.408 97.495-132.258 3.532-2.469 11.753 2.382 15.413.09 39.342-24.644 82.554-36.315 132.401-36.315 67.691 0 117.24 27.154 163.018 70.058 3.725 3.491 18.035-3.597 21.546.109 26.291 27.754 46.433 61.392 58.245 98.733 2.364 7.473-3.25 15.088-11.088 15.088h-465.637z" fill="#24d3b5" data-original="#24d3b5" style="" class=""/><path d="m12.422 177h487.156c8.064 24.881 12.422 51.432 12.422 79 0 53.195-16.225 102.6-43.996 143.538-3.149 4.642-8.357 7.462-13.966 7.462h-395.908c-5.714 0-11.024-2.871-14.228-7.601-10.675-15.758-19.639-32.768-26.628-50.765-.724-1.864 4.322-6.217 3.641-8.102-4.678-12.946-6.467-25.84-9.021-39.66-.456-2.466-8.499-3.003-8.884-5.493-1.982-12.836-3.01-25.987-3.01-39.379 0-27.568 4.358-54.119 12.422-79z" fill="#20b7a1" data-original="#20b7a1" style="" class=""/><path d="m468.368 399c-45.993 68.17-123.945 113-212.368 113s-166.375-44.83-212.368-113z" fill="#3f4a4a" data-original="#3f4a4a" style=""/><path d="m414.674 436.203-15.038 11.613c-2.186 1.688-5.326 1.284-7.013-.901-1.688-2.186-1.284-5.326.901-7.013l15.038-11.613c2.186-1.688 5.326-1.284 7.013.901s1.285 5.325-.901 7.013zm13.613 20.947-18.845-2.422c-2.739-.352-5.245 1.583-5.596 4.322-.352 2.739 1.583 5.245 4.322 5.597l18.845 2.422c2.739.352 5.245-1.583 5.597-4.322.351-2.739-1.584-5.245-4.323-5.597zm-41.177-53.321c-2.739-.352-5.245 1.583-5.597 4.322l-2.422 18.845c-.352 2.739 1.583 5.245 4.322 5.596 2.739.352 5.245-1.583 5.597-4.322l2.422-18.845c.351-2.738-1.584-5.244-4.322-5.596z" fill="#87a0af" data-original="#87a0af" style=""/><path d="m156.215 357.95c0 15.711-12.736 28.447-28.447 28.447h-63.8c-15.711 0-28.447-12.736-28.447-28.447 0-15.711 12.736-28.447 28.447-28.447h63.8c15.711 0 28.447 12.736 28.447 28.447zm200.939-28.447h-63.799c-15.711 0-28.447 12.736-28.447 28.447 0 15.711 12.736 28.447 28.447 28.447h63.799c15.711 0 28.447-12.736 28.447-28.447 0-15.711-12.736-28.447-28.447-28.447z" fill="#147d73" data-original="#147d73" style=""/><path d="m131.371 299.503h141.853c47.543 0 95.072-1.695 142.494-5.083l68.844-4.917-30 40h-431.415c-7.45 0-14.004-5.044-15.779-12.279-1.759-7.168-3.216-14.454-4.357-21.844 42.729 2.747 85.538 4.123 128.36 4.123z" fill="#3342ae" data-original="#3342ae" style="" class=""/><path d="m503.705 312.862-9.766 4.883c-43.511 21.755-92.223 33.255-140.872 33.255h-108.067v.057h-188.945c-12.956 0-25.916-.816-38.781-2.423-4-10.3-7.352-20.923-10.007-31.819 16.108 2.809 32.452 4.242 48.788 4.242h188.945v-.057h108.067c44.016 0 88.089-10.404 127.456-30.088l9.766-4.883c7.411-3.705 16.419-.702 20.124 6.708s.702 16.42-6.708 20.125z" fill="#ffc14f" data-original="#ffc14f" style=""/><path d="m426.191 330.27c0 7.144-5.035 13.32-12.043 14.708-20.11 3.983-40.602 6.022-61.082 6.022h-108.066v.057h-134.138c-8.281 0-14.994-6.713-14.994-14.994v-.012c0-8.281 6.713-14.994 14.994-14.994h134.138v-.057h108.067c18.476 0 36.963-1.834 55.107-5.417 9.316-1.84 18.017 5.19 18.017 14.686z" fill="#ffcd71" data-original="#ffcd71" style=""/><path d="m141.128 404.243c0 24.996-20.263 45.26-45.26 45.26-24.996 0-45.26-20.263-45.26-45.26 0-24.996 20.264-45.26 45.26-45.26 24.997 0 45.26 20.264 45.26 45.26z" fill="#f1de96" data-original="#f1de96" style=""/><path d="m141.128 404.243c0 9.207-2.75 17.771-7.472 24.918-7.147 4.722-15.711 7.472-24.918 7.472-24.996 0-45.26-20.264-45.26-45.26 0-9.207 2.75-17.771 7.472-24.918 7.147-4.722 15.711-7.472 24.918-7.472 24.997 0 45.26 20.264 45.26 45.26zm184.126-45.26c-24.996 0-45.26 20.264-45.26 45.26s20.264 45.26 45.26 45.26 45.26-20.264 45.26-45.26-20.263-45.26-45.26-45.26z" fill="#fffac1" data-original="#fffac1" style=""/><path d="m115.868 404.243c0 11.046-8.954 20-20 20s-20-8.954-20-20 8.954-20 20-20 20 8.954 20 20zm209.386-20c-11.046 0-20 8.954-20 20s8.954 20 20 20 20-8.954 20-20-8.954-20-20-20z" fill="#5766ce" data-original="#5766ce" style=""/><path d="m103.368 404.243c0 4.142-3.358 7.5-7.5 7.5s-7.5-3.358-7.5-7.5 3.358-7.5 7.5-7.5 7.5 3.358 7.5 7.5z" fill="#2b3894" data-original="#2b3894" style=""/><path d="m233.145 87.019h-65.336v-62.019h74.521v52.834c0 5.073-4.112 9.185-9.185 9.185z" fill="#f2bb88" data-original="#f2bb88" style="" class=""/><path d="m167.512 87.019h-5.33c-4.641 0-8.404-3.763-8.404-8.404v-53.615h22.138v53.615c0 4.642-3.762 8.404-8.404 8.404z" fill="#e3a76f" data-original="#e3a76f" style=""/><path d="m242.33 243.657h-72.734v-159.771c0-3.459 2.804-6.263 6.263-6.263h66.471v22.137c-2.837 2.78-4.436 6.584-4.436 10.556v.855c0 3.36 1.145 6.619 3.245 9.241l1.191 1.486v11.069c-2.597 2.635-4.053 6.186-4.053 9.885v2.368c0 3.7 1.456 7.251 4.053 9.885z" fill="#fff5f5" data-original="#fff5f5" style="" class=""/><path d="m175.916 243.657h-22.138v-88.552c4.892-6.569 4.892-15.569 0-22.138v-11.069c4.539-6.681 4.539-15.457 0-22.138v-22.138h22.138z" fill="#e1ebf0" data-original="#e1ebf0" style="" class=""/><path d="m356.995 293.988v3.568c0 6.147-4.983 11.131-11.131 11.131h-164.586c-1.589.881-3.416 1.384-5.362 1.384h-13.299c-6.113 0-11.069-4.956-11.069-11.069v-88.552c0-6.113 4.956-11.069 11.069-11.069h13.299c6.113 0 11.069 4.956 11.069 11.069v11.069h2.717l1.234.086c6.874 0 19.874 1.514 26.022 4.588l77.552 22.625c4.721 2.36 9.833 3.84 15.085 4.365l8.333.833c22.178 2.218 39.067 17.683 39.067 39.972z" fill="#d63030" data-original="#d63030" style=""/><path d="m281.422 1.247c2.937.29 5.184 2.747 5.184 5.699v42.934c0 6.113-4.956 11.069-11.069 11.069h-154.966c-6.113 0-11.069-4.956-11.069-11.069v-3.846c41.506-29.013 92.014-46.034 146.498-46.034 8.579 0 17.06.422 25.422 1.247z" fill="#3342ae" data-original="#3342ae" style="" class=""/><path d="m133.242 31.298v18.582c0 6.113 4.956 11.069 11.069 11.069h-23.739c-6.113 0-11.069-4.956-11.069-11.069v-3.846c7.619-5.326 15.543-10.249 23.739-14.736z" fill="#2b3894" data-original="#2b3894" style=""/><path d="m175.916 310.071h-22.138c-6.113 0-11.069-4.956-11.069-11.069v-88.552c0-6.113 4.956-11.069 11.069-11.069h22.138c-6.113 0-11.069 4.956-11.069 11.069v88.552c0 6.113 4.956 11.069 11.069 11.069z" fill="#c42d2d" data-original="#c42d2d" style=""/><path d="m364.089 293.988v3.568c0 6.147-4.983 11.131-11.131 11.131h-1.567c-5.843-24.705-26.805-43.799-53.065-46.425l-11.667-1.166c-7.353-.736-14.51-2.806-21.119-6.111l-54.397-27.198c-6.856-3.428-14.273-5.547-21.871-6.267h41.99v-11.07c0-6.113 4.956-11.069 11.069-11.069s11.069 4.956 11.069 11.069v12.32c3.224.783 6.361 1.929 9.349 3.423l38.855 19.428c4.721 2.36 9.833 3.84 15.085 4.365l8.333.833c22.177 2.218 39.067 20.881 39.067 43.169z" fill="#ffc14f" data-original="#ffc14f" style=""/><path d="m181.451 321.14h-33.207c-3.057 0-5.534-2.478-5.534-5.534v-19.371h44.276v19.371c-.001 3.056-2.479 5.534-5.535 5.534z" fill="#9bb9c3" data-original="#9bb9c3" style=""/><path d="m358.554 321.14h-188.172c-3.057 0-5.534-2.478-5.534-5.534v-19.371h199.242v19.371c-.001 3.056-2.479 5.534-5.536 5.534z" fill="#b4d2d7" data-original="#b4d2d7" style=""/><path d="m260.226 220.143-12.08 26.64c-1.262 2.784-4.542 4.017-7.326 2.755-2.784-1.262-4.017-4.542-2.755-7.326l12.08-26.64c1.262-2.784 4.542-4.017 7.326-2.755 2.784 1.262 4.017 4.542 2.755 7.326z" fill="#f29500" data-original="#f29500" style=""/><path d="m330.044 250.273-67.488-22.197c-4.592-1.51-7.091-6.458-5.58-11.05l54.218-164.843 84.119 27.667-54.218 164.843c-1.511 4.592-6.459 7.091-11.051 5.58z" fill="#f2bb88" data-original="#f2bb88" style="" class=""/><path d="m275.27 232.258-12.742-4.191c-4.577-1.505-7.067-6.437-5.562-11.014l54.227-164.87 21.03 6.917z" fill="#e3a76f" data-original="#e3a76f" style=""/><path d="m289.419 401.804-69.832-22.968 49.846-151.549c1.121-3.409 4.794-5.264 8.204-4.143l63.658 20.938-6.917 21.03c-5.336 5.319-7.921 12.801-7.008 20.279l.092.75-3.458 10.515c-5.422 5.275-8.024 12.808-7.014 20.306l.098.724z" fill="#fff5f5" data-original="#fff5f5" style="" class=""/><path d="m278.206 223.331-51.876 157.723-21.03-6.917 27.667-84.119c5.091-5.557 7.617-12.995 6.963-20.503l-.046-.527 3.458-10.515c5.342-5.326 7.927-12.82 7.006-20.307l-.089-.723 6.917-21.03z" fill="#e1ebf0" data-original="#e1ebf0" style="" class=""/><path d="m242.33 121.898h-88.552v-22.138h88.552zm92.048 143.213-84.119-27.667-6.917 21.03 84.119 27.667z" fill="#fd9a9a" data-original="#fd9a9a" style="" class=""/><path d="m242.33 155.105h-88.552v-22.138h88.552zm81.673 141.551-84.119-27.667-6.917 21.03 84.119 27.667z" fill="#5766ce" data-original="#5766ce" style=""/><path d="m175.916 121.898h-22.138v-22.138h22.138zm88.456 143.493-21.03-6.917 6.917-21.03 21.03 6.917z" fill="#fc7979" data-original="#fc7979" style=""/><path d="m175.916 155.105h-22.138v-22.138h22.138zm84.998 120.8-21.03-6.917-6.917 21.03 21.03 6.917z" fill="#3342ae" data-original="#3342ae" style="" class=""/><path d="m375.638 485.894-1.115 3.39c-1.921 5.84-13.468 6.664-19.308 4.744l-144.758-49.419c-1.591.207-3.252.07-4.878-.465l-21.03-6.917c-5.807-1.91-6.192-16.602-6.192-16.602l9.444-28.713 17.359-52.777c1.91-5.807 8.166-8.966 13.973-7.056l21.03 6.917c5.807 1.91 8.966 8.166 7.056 13.973l-3.458 10.515 2.172.714 32.014 12.654c6.53 2.148 12.469 5.786 17.349 10.627l30.84 30.595c3.747 3.717 8.141 6.72 12.966 8.86l7.656 3.395c20.375 9.034 35.844 34.392 28.88 55.565z" fill="#f44545" data-original="#f44545" style=""/><path d="m441.88 79.975-21.746 66.115c-1.91 5.807-8.166 8.967-13.973 7.056l-147.208-48.418c-5.807-1.91-8.967-8.166-7.056-13.973l22.457-68.276c4.166-12.666 17.066-20.4 30.16-17.889 53.613 10.285 101.282 37.293 137.366 75.385z" fill="#717ed6" data-original="#717ed6" style=""/><path d="m274.448 98.172c-1.91 5.808 1.249 12.063 7.056 13.974l-22.551-7.417c-5.807-1.91-8.967-8.166-7.056-13.973l29.443-89.518c8.064.792 16.018 1.959 23.845 3.482z" fill="#5766ce" data-original="#5766ce" style=""/><path d="m240.164 338.994c-5.807-1.91-12.063 1.249-13.973 7.056l-27.667 84.119c-1.91 5.807-22.94-1.11-21.03-6.917l27.667-84.119c1.91-5.807 8.166-8.966 13.973-7.056z" fill="#d63030" data-original="#d63030" style=""/><path d="m389.356 487.659-1.115 3.39c-1.921 5.84-8.212 9.016-14.051 7.096l-1.489-.49c2.169-25.294-11.779-49.981-35.904-60.68l-10.718-4.753c-6.755-2.996-12.907-7.199-18.153-12.404l-43.176-42.833c-5.442-5.399-11.825-9.729-18.818-12.787l39.887 13.119 3.458-10.515c1.91-5.807 8.166-8.966 13.973-7.056s8.967 8.166 7.056 13.973l-3.849 11.704c2.818 1.751 5.44 3.82 7.811 6.172l30.84 30.595c3.747 3.717 8.141 6.72 12.966 8.86l7.656 3.395c20.378 9.035 30.59 32.041 23.626 53.214z" fill="#ffc14f" data-original="#ffc14f" style=""/><path d="m313.768 392.013-26.11 13.185c-2.728 1.378-6.057.283-7.435-2.445s-.283-6.057 2.445-7.435l26.11-13.185c2.728-1.378 6.057-.283 7.435 2.445 1.378 2.729.283 6.058-2.445 7.435zm19.242 9.122c-1.378-2.728-4.707-3.823-7.435-2.445l-26.11 13.185c-2.729 1.378-3.823 4.707-2.445 7.435 1.378 2.728 4.707 3.823 7.435 2.445l26.11-13.185c2.728-1.377 3.823-4.706 2.445-7.435zm14.008 17.815c-1.378-2.728-4.707-3.823-7.435-2.445l-17.304 8.738c-2.728 1.378-3.823 4.707-2.445 7.435s4.707 3.823 7.435 2.445l17.304-8.738c2.728-1.378 3.823-4.707 2.445-7.435z" fill="#f29500" data-original="#f29500" style=""/><path d="m203.486 259.704c0 12.226-9.911 22.138-22.138 22.138s-22.138-9.911-22.138-22.138c0-12.226 9.911-22.138 22.138-22.138s22.138 9.912 22.138 22.138zm29.907 117.261c-11.614-3.82-24.126 2.498-27.946 14.113-3.82 11.614 2.498 24.126 14.113 27.947s24.126-2.498 27.946-14.113-2.498-24.127-14.113-27.947z" fill="#fd9a9a" data-original="#fd9a9a" style="" class=""/><path d="m195.185 259.704c0 7.642-6.195 13.836-13.836 13.836s-13.836-6.195-13.836-13.836c0-7.642 6.195-13.836 13.836-13.836s13.836 6.194 13.836 13.836zm35.615 125.147c-7.259-2.388-15.079 1.562-17.467 8.82-2.388 7.259 1.562 15.079 8.821 17.467s15.079-1.562 17.467-8.821c2.387-7.258-1.562-15.078-8.821-17.466z" fill="#fccfc9" data-original="#fccfc9" style=""/><path d="m172.156 258.29 7.778-7.778c.781-.781 2.047-.781 2.828 0l7.778 7.778c.781.781.781 2.047 0 2.828l-7.778 7.778c-.781.781-2.047.781-2.828 0l-7.778-7.778c-.781-.781-.781-2.047 0-2.828zm52.39 148.613 10.027-4.522c1.007-.454 1.455-1.638 1.001-2.645l-4.522-10.027c-.454-1.007-1.638-1.455-2.645-1.001l-10.027 4.522c-1.007.454-1.455 1.638-1.001 2.645l4.522 10.027c.454 1.007 1.638 1.456 2.645 1.001z" fill="#e5554e" data-original="#e5554e" style=""/><path d="m207.378 456.387-31.544-10.375c-2.904-.955-4.483-4.083-3.528-6.987l6.052-18.401 42.059 13.834-6.052 18.401c-.955 2.903-4.083 4.483-6.987 3.528z" fill="#a7d0fc" data-original="#a7d0fc" style=""/><path d="m375.616 511.721-178.752-58.793c-2.904-.955-4.483-4.083-3.528-6.987l6.052-18.401 189.267 62.251-6.052 18.401c-.956 2.905-4.084 4.484-6.987 3.529z" fill="#c8e2fd" data-original="#c8e2fd" style=""/></g></g></svg>
